<?xml version="1.0" encoding="iso-8859-1"?>
<!-- Generator: Adobe Illustrator 19.0.0, SVG Export Plug-In . SVG Version: 6.00 Build 0)  -->
<svg version="1.1" id="Capa_1" xmlns="http://www.w3.org/2000/svg" xmlns:xlink="http://www.w3.org/1999/xlink" x="0px" y="0px"
	 viewBox="0 0 467.2 467.2" style="enable-background:new 0 0 467.2 467.2;" xml:space="preserve">
<g>
	<g>
		<g>
			<path d="M290,247.6h-15.2c0-0.4-0.4-0.8-0.4-0.8c0-0.4-0.4-0.8-0.4-0.8l10.8-10.8c2.8-2.8,4.4-6.8,4.4-10.4c0-3.6-1.2-7.2-4-10
				l-0.4-0.4l-13.2-13.2c-2.8-2.8-6.8-4.4-10.4-4.4c-3.6,0-7.2,1.2-10,4l-0.4,0.4L240,212c-0.4,0-0.8-0.4-0.8-0.4
				c-0.4,0-0.8-0.4-0.8-0.4V196c0-4-1.6-8-4.4-10.4c-2.8-2.8-6.4-4.4-10.4-4.4h-18.8c-4,0-7.6,1.6-10.4,4.4S190,192,190,196v15.2
				c-0.4,0-0.8,0.4-0.8,0.4c-0.4,0-0.8,0.4-0.8,0.4l-10.8-10.8c-2.8-2.8-6.8-4.4-10.4-4.4s-7.2,1.2-10,4l-0.4,0.4l-13.2,13.2
				c-2.8,2.8-4.4,6.8-4.4,10.4c0,3.6,1.2,7.2,4,10l0.4,0.4l10.8,10.8c0,0.4-0.4,0.8-0.4,0.8c0,0.4-0.4,0.8-0.4,0.8h-15.2
				c-4,0-7.6,1.6-10,4L128,252c-2.8,2.8-4.4,6.4-4.4,10.4v18.8c0,4,1.6,8,4.4,10.4c2.8,2.8,6.4,4.4,10.4,4.4h15.2
				c0,0.4,0.4,0.8,0.4,0.8c0,0.4,0.4,0.8,0.4,0.8l-10.8,10.8c-2.8,2.8-4.4,6.8-4.4,10.4c0,3.6,1.2,7.2,4,10l0.4,0.4l13.2,13.2
				c2.8,2.8,6.8,4.4,10.4,4.4c3.6,0,7.2-1.2,10-4l0.4-0.4l10.8-10.8c0.4,0,0.8,0.4,0.8,0.4c0.4,0,0.8,0.4,0.8,0.4v15.2
				c0,4,1.6,8,4.4,10.4c2.8,2.8,6.4,4.4,10.4,4.4h18.8c4,0,7.6-1.6,10.4-4.4s4.4-6.4,4.4-10.4v-15.2c0.4,0,0.8-0.4,0.8-0.4
				c0.4,0,0.8-0.4,0.8-0.4l10.8,10.8c2.8,2.8,6.8,4.4,10.4,4.4c4,0,7.6-1.6,10.4-4.4l13.2-13.2c2.8-2.8,4.4-6.8,4.4-10.4
				c0-3.6-1.2-7.2-4-10l-0.4-0.4L274,297.6c0-0.4,0.4-0.8,0.4-0.8c0-0.4,0.4-0.8,0.4-0.8H290c4,0,7.6-1.6,10-4l0.4-0.4
				c2.8-2.8,4.4-6.4,4.4-10.4v-18.8c0-4-1.6-7.6-4.4-10.4C297.6,249.2,294,247.6,290,247.6z M292.8,284c-0.8,0.8-1.6,1.2-2.8,1.2
				h-18.8c-2.4,0-4.4,1.6-5.2,4c-0.4,1.2-0.8,2.4-1.2,3.6s-1.2,2.4-1.6,3.6c-1.2,2-0.4,4.4,0.8,6l13.2,13.2c0.8,0.8,1.2,1.6,1.2,2.8
				c0,1.2-0.4,2-1.2,2.8L264,334.4c-0.8,0.8-2,1.2-2.8,1.2c-1.2,0-2-0.4-2.8-1.2l-13.2-13.2c-1.6-1.6-4.4-2-6.4-0.8
				c-1.2,0.4-2.4,1.2-3.6,1.6c-1.2,0.4-2.4,0.8-4,1.6c-2.4,0.8-3.6,2.8-3.6,5.2v18.8c0,1.2-0.4,2.4-1.2,2.8c-0.8,0.8-2,1.2-2.8,1.2
				h-18.8c-1.2,0-2.4-0.4-2.8-1.2c-0.8-0.8-1.2-2-1.2-2.8v-18c0-2.4-1.6-4.4-4-5.2c-1.2-0.4-2.4-0.8-3.6-1.2s-2.4-1.2-3.6-1.6
				c-2-1.2-4.4-0.4-6,0.8l-13.2,13.2c-0.8,0.8-1.6,1.2-2.8,1.2c-1.2,0-2-0.4-2.8-1.2l-13.2-13.2c-0.8-0.8-1.2-1.6-1.2-2.8
				s0.4-2,1.2-2.8l13.2-13.2c1.6-1.6,2-4.4,0.8-6.4c-0.4-1.2-1.2-2.4-1.6-3.6s-0.8-2.4-1.6-4c-0.8-2.4-2.8-3.6-5.2-3.6h-18.8
				c-1.2,0-2.4-0.4-2.8-1.2c-0.8-0.8-1.2-2-1.2-2.8v-18.8c0-1.2,0.4-2.4,1.2-2.8c0.8-0.8,1.6-1.2,2.8-1.2h18.8c2.4,0,4.4-1.6,5.2-4
				c0.4-1.2,0.8-2.4,1.2-3.6c0.4-1.2,1.2-2.4,1.6-3.6c1.2-2,0.4-4.4-0.8-6l-13.2-13.2c-0.8-0.8-1.2-1.6-1.2-2.8s0.4-2,1.2-2.8
				l13.2-13.2c0.8-0.8,1.6-1.2,2.8-1.2c1.2,0,2,0.4,2.8,1.2l13.2,13.2c1.6,1.6,4.4,2,6.4,0.8c1.2-0.4,2.4-1.2,3.6-1.6
				c1.2-0.4,2.4-0.8,4-1.6c2.4-0.8,3.6-2.8,3.6-5.2v-18.8c0-1.2,0.4-2.4,1.2-2.8c0.8-0.8,2-1.2,2.8-1.2h18.8c1.2,0,2.4,0.4,2.8,1.2
				c0.8,0.8,1.2,2,1.2,2.8v18.8c0,2.4,1.6,4.4,4,5.2c1.2,0.4,2.4,0.8,3.6,1.2c1.2,0.4,2.4,1.2,3.6,1.6c2,1.2,4.4,0.4,6-0.8
				l13.2-13.2c0.8-0.8,1.6-1.2,2.8-1.2c1.2,0,2,0.4,2.8,1.2l13.2,13.2c0.8,0.8,1.2,1.6,1.2,2.8s-0.4,2-1.2,2.8l-13.2,13.2
				c-1.6,1.6-2,4.4-0.8,6.4c0.4,1.2,1.2,2.4,1.6,3.6c0.4,1.2,0.8,2.4,1.6,4c0.8,2.4,2.8,3.6,5.2,3.6H290c1.2,0,2.4,0.4,2.8,1.2
				c0.8,0.8,1.2,2,1.2,2.8v18h0C294,282.4,293.6,283.6,292.8,284z"/>
			<path d="M213.6,232.8c-10.8,0-20.4,4.4-27.6,11.6s-11.6,16.8-11.6,27.6s4.4,20.4,11.6,27.6c7.2,7.2,16.8,11.6,27.6,11.6
				s20.4-4.4,27.6-11.6s11.6-16.8,11.6-27.6c0-10.8-4.4-20.4-11.6-27.6S224.4,232.8,213.6,232.8z M233.6,292
				c-5.2,5.2-12.4,8.4-20,8.4c-8,0-14.8-3.2-20-8.4s-8.4-12.4-8.4-20c0-8,3.2-14.8,8.4-20c5.2-5.2,12.4-8.4,20-8.4
				c8,0,14.8,3.2,20,8.4c5.2,5.2,8.4,12.4,8.4,20C242,279.6,238.8,286.8,233.6,292z"/>
			<path d="M457.6,104.8c-5.6-6-14-9.6-23.2-9.6H207.2H200l-18.4-22c-1.6-1.6-2.8-3.2-3.6-4.4c-8.4-10.4-8.4-10.4-28-10.4H72.8
				c-9.2,0-17.2,3.6-23.2,9.6S40,82.4,40,91.2v1.6h-7.2c-9.2,0-17.2,3.6-23.2,9.6S0,116.8,0,125.6V376c0,9.2,3.6,17.2,9.6,23.2
				s14.4,9.6,23.2,9.6h361.6c9.2,0,17.2-3.6,23.2-9.6s9.6-14.4,9.6-23.2v-1.6h7.2c9.2,0,17.2-3.6,23.2-9.6s9.6-14.4,9.6-23.2V128
				C467.2,118.8,463.6,110.8,457.6,104.8z M417.2,369.2h-0.4v6.8c0,6-2.4,11.6-6.4,15.6s-9.6,6.4-15.6,6.4h-362
				c-6,0-11.6-2.4-15.6-6.4s-6.4-9.6-6.4-15.6V125.6c0-6,2.4-11.6,6.4-15.6s9.6-6.4,15.6-6.4h12.4H110c14.4,0,14.4,0,19.6,6.4
				c1.2,1.2,2.4,2.8,4,4.8l20,23.6c0.8,1.2,2.4,2,4.4,2h9.6h227.6c6,0,11.6,2.4,15.6,6.4s6.4,9.6,6.4,15.6V369.2z M450.4,357.2
				c-4,4-9.6,6.4-15.6,6.4h-7.2V162.4c0-9.2-3.6-17.2-9.6-23.2s-14.4-9.6-23.2-9.6h-228h-7.2l-18-22c-1.6-1.6-2.8-3.2-3.6-4.4
				c-8.4-10.4-8.4-10.4-28-10.4H50.4v-1.6c0-6,2.4-11.6,6.4-15.6s9.6-6.4,15.6-6.4h77.2c14.4,0,14.4,0,19.6,6.4
				c1.2,1.2,2.4,2.8,4,4.8l20,24c1.2,1.2,2.4,2,4,2h9.6h227.6c6,0,11.6,2.4,15.6,6.4s6.4,9.6,6.4,15.6v213.2h0.4
				C456.8,347.6,454.4,353.2,450.4,357.2z"/>
		</g>
	</g>
</g>
<g>
</g>
<g>
</g>
<g>
</g>
<g>
</g>
<g>
</g>
<g>
</g>
<g>
</g>
<g>
</g>
<g>
</g>
<g>
</g>
<g>
</g>
<g>
</g>
<g>
</g>
<g>
</g>
<g>
</g>
</svg>
