<?xml version="1.0" encoding="iso-8859-1"?>
<!-- Generator: Adobe Illustrator 19.0.0, SVG Export Plug-In . SVG Version: 6.00 Build 0)  -->
<svg version="1.1" id="Capa_1" xmlns="http://www.w3.org/2000/svg" xmlns:xlink="http://www.w3.org/1999/xlink" x="0px" y="0px"
	 viewBox="0 0 401.614 401.614" style="enable-background:new 0 0 401.614 401.614;" xml:space="preserve">
<g>
	<g>
		<path d="M199.607,0.014c-41.6,1.6-74.4,34.4-76,76v120.8c0,43.2,35.2,78.4,78.4,78.4s78.4-35.2,78.4-78.4v-120.8
			C278.807,32.814,242.807-0.786,199.607,0.014z M135.607,76.014c0-36.8,29.6-66.4,66.4-66.4s66.4,29.6,66.4,66.4v54.4h-132.8
			V76.014z M204.407,264.014c-36.8,1.6-67.2-27.2-68.8-64c0-1.6,0-3.2,0-4.8v-52.8h132.8v52.8
			C270.007,232.014,241.207,262.414,204.407,264.014z"/>
	</g>
</g>
<g>
	<g>
		<path d="M317.207,196.814c0-3.2-2.4-6.4-6.4-6.4s-6.4,2.4-6.4,6.4c1.6,56.8-43.2,100.8-100.8,102.4c-56.8,1.6-104.8-40-106.4-96.8
			c0-1.6,0-4,0-5.6c0-3.2-2.4-6.4-6.4-6.4s-6.4,2.4-6.4,6.4c2.4,52.8,38.4,99.2,90.4,112v54.4h-44.8c-3.2,0-6.4,2.4-6.4,6.4v25.6
			c0,3.2,2.4,6.4,6.4,6.4h144c3.2,0,6.4-2.4,6.4-6.4v-25.6c0-3.2-2.4-6.4-6.4-6.4h-44.8v-54.4
			C280.407,296.014,317.207,249.614,317.207,196.814z M186.807,311.214c9.6,1.6,20.8,1.6,31.2,0v52h-31.2V311.214z M268.407,374.414
			v13.6h-132.8v-13.6H268.407z"/>
	</g>
</g>
<g>
</g>
<g>
</g>
<g>
</g>
<g>
</g>
<g>
</g>
<g>
</g>
<g>
</g>
<g>
</g>
<g>
</g>
<g>
</g>
<g>
</g>
<g>
</g>
<g>
</g>
<g>
</g>
<g>
</g>
</svg>
